<svg xmlns="http://www.w3.org/2000/svg" xml:space="preserve" width="2000" height="1500" data-id="lg_pg9thaGUjpi3CrGsXw" data-version="1" viewBox="0 0 2000 1500"><path fill="#303030" stroke="transparent" d="M0 0h2000v1500H0z"/><g data-padding="20"><g transform="translate(-1666.198 -1266.298)scale(2.5959)"><rect width="442.592" height="73.45" x="403.617" y="338.854" fill="none" rx="0" ry="0" transform="translate(459.2 399.98)"/><path fill="#b4b4b4" d="M871.353 795.48h-5.26v-46.8h42.7v5.27h-37.44v15.47h30.1v5.33h-30.1Zm76.9 0h-30.55q-2.15 0-3.93-1.07-1.79-1.07-2.86-2.86-1.08-1.79-1.08-3.93v-13.65h33.02v-8.32q0-1.04-.74-1.79-.75-.75-1.79-.75h-30.49v-5.33h30.49q2.21 0 4 1.08 1.78 1.07 2.86 2.86 1.07 1.78 1.07 3.93Zm-30.55-5.33h25.15V779.3h-27.69v8.32q0 1.04.75 1.79.75.74 1.79.74m39.84 20.28h-5.33v-52.65h30.55q2.15 0 3.94 1.08 1.78 1.07 2.86 2.86 1.07 1.78 1.07 3.93v21.97q0 2.14-1.07 3.93-1.08 1.79-2.86 2.86-1.79 1.07-3.94 1.07h-25.22Zm2.6-20.28h22.62q1.04 0 1.79-.74.75-.75.75-1.79v-21.97q0-1.04-.75-1.79t-1.79-.75h-22.62q-1.04 0-1.82.75t-.78 1.79v21.97q0 1.04.78 1.79.78.74 1.82.74m40.03 5.33q-2.14 0-3.93-1.07t-2.86-2.86-1.07-3.93v-21.97q0-2.15 1.07-3.93 1.07-1.79 2.86-2.86 1.79-1.08 3.93-1.08h22.62q2.21 0 4 1.08 1.79 1.07 2.86 2.86 1.07 1.78 1.07 3.93v13.65h-33.08v8.32q0 1.04.75 1.79.74.74 1.78.74h30.55v5.33Zm-2.53-29.83v8.32h27.69v-8.32q0-1.04-.75-1.79t-1.79-.75h-22.62q-1.04 0-1.78.75-.75.75-.75 1.79m44.79 29.82q-2.21 0-3.99-1.07-1.79-1.07-2.83-2.86t-1.04-3.93v-42.19h5.33v12.35h16.31v5.33h-16.31v24.51q0 1.04.75 1.79.74.74 1.78.74h13.78v5.33Zm21.32 0h-5.33v-50.05h5.33v12.35h25.22q2.15 0 3.94 1.08 1.78 1.07 2.86 2.86 1.07 1.78 1.07 3.93v29.83h-5.33v-29.83q0-1.04-.75-1.79t-1.79-.75h-22.62q-1.04 0-1.82.75t-.78 1.79Zm42.9.01q-2.14 0-3.93-1.07t-2.86-2.86-1.07-3.93v-21.97q0-2.15 1.07-3.93 1.07-1.79 2.86-2.86 1.79-1.08 3.93-1.08h22.62q2.21 0 4 1.08 1.79 1.07 2.86 2.86 1.07 1.78 1.07 3.93v13.65h-33.08v8.32q0 1.04.75 1.79.74.74 1.78.74h30.55v5.33Zm-2.53-29.83v8.32h27.69v-8.32q0-1.04-.75-1.79t-1.79-.75h-22.62q-1.04 0-1.78.75-.75.75-.75 1.79m42.9 29.82q-2.21 0-4-1.07t-2.86-2.86-1.07-3.93v-21.97q0-2.15 1.07-3.93 1.07-1.79 2.86-2.86 1.79-1.08 4-1.08h25.15v-12.35h5.33v50.05Zm0-5.33h22.62q1.04 0 1.79-.74.74-.75.74-1.79v-21.97q0-1.04-.74-1.79-.75-.75-1.79-.75h-22.62q-1.04 0-1.79.75t-.75 1.79v21.97q0 1.04.75 1.79.75.74 1.79.74m42.25 5.34q-2.15 0-3.93-1.07-1.79-1.07-2.86-2.86-1.08-1.79-1.08-3.93v-21.97q0-2.15 1.08-3.93 1.07-1.79 2.86-2.86 1.78-1.08 3.93-1.08h22.62q2.21 0 4 1.08 1.78 1.07 2.86 2.86 1.07 1.78 1.07 3.93v13.65h-33.09v8.32q0 1.04.75 1.79.75.74 1.79.74h30.55v5.33Zm-2.54-29.83v8.32h27.69v-8.32q0-1.04-.74-1.79-.75-.75-1.79-.75h-22.62q-1.04 0-1.79.75t-.75 1.79m61.82 29.83h-6.18l-20.8-37.7h6.24l17.68 32.5 17.68-32.5h6.24Z"/><g fill="none" stroke="#b0b0b0" stroke-width="3.5" paint-order="stroke"><path d="M795.413 756.6a43.58 21.08 0 1 0 0 42.16 43.58 21.08 0 1 0 0-42.16Z" vector-effect="non-scaling-stroke"/><path d="M813.443 777.03a21.08 43.58 0 1 0-42.16 0 21.08 43.58 0 1 0 42.16 0Z" vector-effect="non-scaling-stroke"/><path d="M805.546 759.668a43.58 21.08 44.7 1 0-29.655 29.967 43.58 21.08 44.7 1 0 29.655-29.967Z" vector-effect="non-scaling-stroke"/><path d="M804.815 790.526a21.08 43.58 45.3 1 0-29.655-29.967 21.08 43.58 45.3 1 0 29.655 29.967Z" vector-effect="non-scaling-stroke"/><path d="m794.397 759.627 2.3 8.54a8.74 8.74 0 0 0 6.16 6.162l8.542 2.3-8.541 2.3a8.74 8.74 0 0 0-6.16 6.16l-2.301 8.541-2.3-8.54a8.74 8.74 0 0 0-6.16-6.16l-8.54-2.303 8.54-2.3a8.74 8.74 0 0 0 6.162-6.16Z" vector-effect="non-scaling-stroke"/></g></g><path fill="transparent" stroke="transparent" stroke-width="2.693" d="M258.005 648.68H1750v196.598H258.005z"/></g></svg>